name analog
datacolumns 19
datarows 23
range 0.3775 0.3885
endheader
time	ground_force_vx	ground_force_vy	ground_force_vz	ground_force_px	ground_force_py	ground_force_pz	l_ground_force_vx	l_ground_force_vy	l_ground_force_vz	l_ground_force_px	l_ground_force_py	l_ground_force_pz	ground_torque_x	ground_torque_y	ground_torque_z	l_ground_torque_x	l_ground_torque_y	l_ground_torque_z
0.3775	-0.0	-0.0	-0.0	1.9686744213104248	-4.945990085601807	-332.7194519042969	-0.9758186340332032	-1.6554478406906128	-379.8120727539063	-0.0	-0.0	-0.0	-0.0	-0.0	-0.0	86535.65625	-15907.48828125	-6141.57080078125
0.378	-0.0	-0.0	-0.0	2.8273301124572754	-5.158826351165772	-331.1934509277344	-0.5157520771026611	-1.998518466949463	-380.57525634765625	-0.0	-0.0	-0.0	-0.0	-0.0	-0.0	86352.375	-15896.73046875	-6068.9033203125
0.3785	-0.0	-0.0	-0.0	2.8160934448242188	-5.024666786193848	-332.21014404296875	-0.2330321818590164	-1.8712328672409055	-380.314697265625	-0.0	-0.0	-0.0	-0.0	-0.0	-0.0	86638.171875	-15771.689453125	-6003.84521484375
0.379	-0.0	-0.0	-0.0	2.347407341003418	-5.275413513183594	-333.0705871582031	-0.21636962890625	-2.1584975719451904	-378.9601135253906	-0.0	-0.0	-0.0	-0.0	-0.0	-0.0	86574.5390625	-16065.83203125	-6022.501953125
0.3795	-0.0	-0.0	-0.0	2.280534267425537	-4.890849590301514	-331.9891357421875	-0.0887107849121093	-1.7664337158203125	-378.3927307128906	-0.0	-0.0	-0.0	-0.0	-0.0	-0.0	86250.8828125	-16175.232421875	-5942.53466796875
0.38	-0.0	-0.0	-0.0	1.9573951959609983	-4.823504447937012	-332.6497802734375	0.1719468533992767	-1.4960179328918457	-378.9820861816406	-0.0	-0.0	-0.0	-0.0	-0.0	-0.0	85960.0390625	-15771.6591796875	-5975.69384765625
0.3805	-0.0	-0.0	-0.0	1.2775648832321167	-4.6011457443237305	-330.2698974609375	0.0333694219589233	-1.7332106828689575	-378.2625732421875	-0.0	-0.0	-0.0	-0.0	-0.0	-0.0	86360.3828125	-16052.07421875	-5974.046875
0.381	-0.0	-0.0	-0.0	0.9089661240577698	-4.33369779586792	-329.5836486816406	0.4101279973983764	-1.1481819152832031	-378.76373291015625	-0.0	-0.0	-0.0	-0.0	-0.0	-0.0	86048.0078125	-16056.3720703125	-6040.28662109375
0.3815	-0.0	-0.0	-0.0	0.5981216430664062	-4.372113227844238	-329.65069580078125	0.4100573062896728	-0.7732728719711304	-377.4524536132813	-0.0	-0.0	-0.0	-0.0	-0.0	-0.0	86183.3515625	-16264.0556640625	-5890.1865234375
0.382	-0.0	-0.0	-0.0	0.9474470615386964	-3.9939489364624015	-329.7850646972656	0.8487544655799866	-0.3867110908031463	-377.9330139160156	-0.0	-0.0	-0.0	-0.0	-0.0	-0.0	86203.46875	-16311.939453125	-5813.646484375
0.3825	-0.0	-0.0	-0.0	0.8368384838104248	-4.155215263366699	-332.05633544921875	1.191481113433838	-0.3152135610580444	-377.9988098144531	-0.0	-0.0	-0.0	-0.0	-0.0	-0.0	86121.078125	-16148.3916015625	-5746.89501953125
0.383	-0.0	-0.0	-0.0	1.07474684715271	-3.794425010681152	-332.779541015625	1.3475109338760376	-0.0	-376.5843811035156	-0.0	-0.0	-0.0	-0.0	-0.0	-0.0	86033.328125	-16220.4287109375	-5687.40966796875
0.3835	-0.0	-0.0	-0.0	0.586370050907135	-3.391890048980713	-332.2074584960937	1.4405368566513062	0.0378839969635009	-377.1670837402344	-0.0	-0.0	-0.0	-0.0	-0.0	-0.0	85956.4140625	-16273.4052734375	-5635.1337890625
0.384	-0.0	-0.0	-0.0	0.71368408203125	-3.6714046001434326	-332.34234619140625	1.5080833435058594	0.0209221243858337	-376.4520568847656	-0.0	-0.0	-0.0	-0.0	-0.0	-0.0	86060.6484375	-16214.4599609375	-5683.09912109375
0.3845	-0.0	-0.0	-0.0	-0.1479364037513733	-3.4894590377807617	-333.1987609863281	1.8838375806808472	0.323479413986206	-375.76947021484375	-0.0	-0.0	-0.0	-0.0	-0.0	-0.0	86030.875	-16252.0126953125	-5610.7490234375
0.385	-0.0	-0.0	-0.0	-0.0035254955291748	-3.990224123001098	-331.43243408203125	1.7912031412124634	0.2442949712276458	-376.0363159179688	-0.0	-0.0	-0.0	-0.0	-0.0	-0.0	86182.9765625	-16453.8359375	-5438.54443359375
0.3855	-0.0	-0.0	-0.0	0.0138377547264099	-4.03136157989502	-332.68231201171875	2.3405301570892334	0.5843513607978821	-375.3380126953125	-0.0	-0.0	-0.0	-0.0	-0.0	-0.0	86229.6484375	-16540.0078125	-5326.328125
0.386	-0.0	-0.0	-0.0	0.2160296738147735	-4.562835693359375	-333.19757080078125	2.75003433227539	0.9171686172485352	-376.6675109863281	-0.0	-0.0	-0.0	-0.0	-0.0	-0.0	86372.125	-16517.044921875	-5235.787109375
0.3865	-0.0	-0.0	-0.0	0.2503932118415832	-4.836297035217285	-333.3336181640625	3.2619409561157227	1.0461026430130005	-375.619873046875	-0.0	-0.0	-0.0	-0.0	-0.0	-0.0	85871.6953125	-16627.783203125	-5158.95703125
0.387	-0.0	-0.0	-0.0	0.6244735717773438	-4.798609256744385	-330.5080261230469	3.479928731918335	0.7236239910125732	-376.0363159179688	-0.0	-0.0	-0.0	-0.0	-0.0	-0.0	85823.8828125	-16289.123046875	-4955.931640625
0.3875	-0.0	-0.0	-0.0	0.2849335074424743	-4.709322929382324	-332.969482421875	3.159285306930542	-0.1966601610183715	-374.0089111328125	-0.0	-0.0	-0.0	-0.0	-0.0	-0.0	85850.0703125	-16450.166015625	-5177.53955078125
0.388	-0.0	-0.0	-0.0	0.5897942185401917	-4.65210485458374	-331.6946716308594	2.6241796016693115	0.0198674798011779	-374.15521240234375	-0.0	-0.0	-0.0	-0.0	-0.0	-0.0	85480.359375	-16477.83203125	-5029.51953125
0.3885	-0.0	-0.0	-0.0	0.0521321445703506	-4.632459163665772	-330.576416015625	2.747455596923828	-0.4244575500488281	-373.24310302734375	-0.0	-0.0	-0.0	-0.0	-0.0	-0.0	85385.0390625	-16472.986328125	-4998.9931640625
